<?xml version="1.0" encoding="utf-8"?>
<svg xmlns="http://www.w3.org/2000/svg" xmlns:xlink="http://www.w3.org/1999/xlink" width="68" height="68" viewBox="0 0 68 68">
    <defs>
        <path id="a" d="M0 .257h30.068V31H0z"/>
    </defs>
    <g fill="none" fill-rule="evenodd">
        <circle cx="34" cy="34" r="34" fill="#F7F7F7"/>
        <path fill="#7B8C7D" d="M32.147 25.507a2.746 2.746 0 0 0-2.74 2.741 2.745 2.745 0 0 0 2.74 2.74 2.746 2.746 0 0 0 2.74-2.74 2.72 2.72 0 0 0-2.74-2.741M34.69 32.021h-5.085a2.39 2.39 0 0 0-2.383 2.383v2.224h9.89v-2.224c0-1.31-1.072-2.383-2.422-2.383"/>
        <g transform="translate(19 17.743)">
            <mask id="b" fill="#fff">
                <use xlink:href="#a"/>
            </mask>
            <path fill="#7B8C7D" d="M13.147 22.937c-5.282 0-9.572-4.29-9.572-9.573 0-5.282 4.29-9.573 9.572-9.573 5.283 0 9.573 4.291 9.573 9.573 0 5.283-4.29 9.573-9.573 9.573m0-22.68C5.917.256 0 6.134 0 13.403c0 7.23 5.877 13.147 13.146 13.147 2.344 0 4.687-.635 6.753-1.867l.476-.277 6.038 5.958c.397.396.914.635 1.509.635.556 0 1.113-.239 1.51-.635.397-.398.635-.914.635-1.51s-.238-1.072-.635-1.51l-5.92-5.838.518-.755a13.137 13.137 0 0 0 2.263-7.348c0-7.269-5.877-13.148-13.147-13.148" mask="url(#b)"/>
        </g>
    </g>
</svg>